<?xml version="1.0" encoding="UTF-8"?>
<svg width="465px" height="343px" viewBox="0 0 465 343" version="1.1" xmlns="http://www.w3.org/2000/svg" xmlns:xlink="http://www.w3.org/1999/xlink">
    <!-- Generator: Sketch 52.6 (67491) - http://www.bohemiancoding.com/sketch -->
    <title>Group Copy</title>
    <desc>Created with Sketch.</desc>
    <g id="Page-2" stroke="none" stroke-width="1" fill="none" fill-rule="evenodd">
        <g id="Group-Copy">
            <g id="Group" transform="translate(0.000000, 45.000000)">
                <g transform="translate(0.000000, 73.956204)">
                    <path d="M394.140187,38.0656934 C353.201869,18.2715328 295.714019,5.8729927 232.128972,5.8729927 C168.543925,5.8729927 111.273832,18.2715328 70.117757,38.0656934 L6.53271028,38.0656934 L6.53271028,111.80438 C6.53271028,170.316788 107.571963,217.735766 232.346729,217.735766 C356.903738,217.735766 458.160748,170.316788 458.160748,111.80438 L458.160748,38.0656934 L394.140187,38.0656934 Z" id="Path" fill="#58595B"></path>
                    <path d="M232.346729,223.826277 C171.157009,223.826277 113.669159,212.515328 70.117757,192.286131 C25.2598131,171.186861 0.653271028,142.691971 0.653271028,112.021898 L0.653271028,38.2832117 C0.653271028,35.020438 3.26635514,32.410219 6.53271028,32.410219 L69.028972,32.410219 C112.580374,11.7459854 170.503738,0.217518248 232.346729,0.217518248 C294.18972,0.217518248 352.113084,11.5284672 395.664486,32.410219 L458.160748,32.410219 C461.427103,32.410219 464.040187,35.020438 464.040187,38.2832117 L464.040187,112.021898 C464.040187,142.691971 439.433645,171.186861 394.575701,192.286131 C351.024299,212.515328 293.318692,223.826277 232.346729,223.826277 Z M12.4121495,44.1562044 L12.4121495,112.021898 C12.4121495,137.906569 34.6233645,162.70365 75.1261682,181.627737 C116.935514,201.20438 172.681308,212.080292 232.128972,212.080292 C291.576636,212.080292 347.32243,201.20438 389.131776,181.627737 C429.634579,162.70365 451.845794,137.906569 451.845794,112.021898 L451.845794,44.1562044 L394.140187,44.1562044 C393.269159,44.1562044 392.398131,43.9386861 391.527103,43.5036496 C349.5,23.0569343 292.883178,11.9635036 232.128972,11.9635036 C171.374766,11.9635036 114.975701,23.2744526 72.7308411,43.5036496 C71.8598131,43.9386861 70.988785,44.1562044 70.117757,44.1562044 L12.4121495,44.1562044 Z" id="Shape" fill="#414042" fill-rule="nonzero"></path>
                </g>
                <g>
                    <ellipse id="Oval" fill="#939598" cx="232.346729" cy="112.021898" rx="225.814019" ry="105.931387"></ellipse>
                    <path d="M232.346729,224.043796 C171.157009,224.043796 113.669159,212.732847 70.117757,192.50365 C25.2598131,171.40438 0.653271028,142.909489 0.653271028,112.239416 C0.653271028,81.5693431 25.2598131,53.0744526 70.117757,31.9751825 C113.451402,11.5284672 171.157009,0.435036496 232.346729,0.435036496 C293.536449,0.435036496 351.024299,11.7459854 394.575701,31.9751825 C439.433645,53.0744526 464.040187,81.5693431 464.040187,112.239416 C464.040187,142.909489 439.433645,171.40438 394.575701,192.50365 C351.024299,212.732847 293.318692,224.043796 232.346729,224.043796 Z M232.346729,11.9635036 C172.899065,11.9635036 117.153271,22.8394161 75.3439252,42.4160584 C34.8411215,61.340146 12.6299065,86.1372263 12.6299065,112.021898 C12.6299065,137.906569 34.8411215,162.70365 75.3439252,181.627737 C117.153271,201.20438 172.899065,212.080292 232.346729,212.080292 C291.794393,212.080292 347.540187,201.20438 389.349533,181.627737 C429.852336,162.70365 452.063551,137.906569 452.063551,112.021898 C452.063551,86.1372263 429.852336,61.340146 389.349533,42.4160584 C347.540187,22.8394161 291.794393,11.9635036 232.346729,11.9635036 Z" id="Shape" fill="#414042" fill-rule="nonzero"></path>
                </g>
            </g>
            <path d="M232,211 C180.443951,211 131.715871,201.406393 95.1698113,184.181507 C57.1009989,166.302511 36,141.88242 36,115.5 C36,89.1175799 56.8834628,64.6974886 95.1698113,46.8184932 C131.933407,29.5936073 180.443951,20 232,20 C283.556049,20 332.284129,29.5936073 368.830189,46.8184932 C406.899001,64.6974886 428,89.1175799 428,115.5 C428,141.88242 407.116537,166.302511 368.830189,184.181507 C332.066593,201.406393 283.556049,211 232,211 Z M232,31.7739726 C181.966704,31.7739726 135.196448,40.9315068 100.173141,57.5022831 C66.4550499,73.4189498 47.9644839,93.9143836 47.9644839,115.5 C47.9644839,137.085616 66.4550499,157.58105 100.173141,173.497717 C135.413984,190.068493 182.18424,199.226027 232,199.226027 C282.033296,199.226027 328.803552,190.068493 363.826859,173.497717 C397.54495,157.58105 416.035516,137.085616 416.035516,115.5 C416.035516,93.9143836 397.54495,73.4189498 363.826859,57.5022831 C328.586016,40.9315068 281.81576,31.7739726 232,31.7739726 Z" id="Shape-Copy" fill="#414042" fill-rule="nonzero"></path>
            <path d="M232,202 C182.022198,202 134.785794,192.406393 99.3584906,175.181507 C62.4550499,157.302511 42,132.88242 42,106.5 C42,80.1175799 62.2441731,55.6974886 99.3584906,37.8184932 C134.99667,20.5936073 182.022198,11 232,11 C281.977802,11 329.214206,20.5936073 364.641509,37.8184932 C401.54495,55.6974886 422,80.1175799 422,106.5 C422,132.88242 401.755827,157.302511 364.641509,175.181507 C329.00333,192.406393 281.977802,202 232,202 Z M231.5,23 C182.971631,23 137.608156,32.1328125 103.638298,48.6588542 C70.9343972,64.5325521 53,84.9726562 53,106.5 C53,128.027344 70.9343972,148.467448 103.638298,164.341146 C137.819149,180.867188 183.182624,190 231.5,190 C280.028369,190 325.391844,180.867188 359.361702,164.341146 C392.065603,148.467448 410,128.027344 410,106.5 C410,84.9726563 392.065603,64.5325521 359.361702,48.6588542 C325.180851,32.1328125 279.817376,23 231.5,23 Z" id="Shape-Copy-2" fill="#89000A" fill-rule="nonzero"></path>
            <ellipse id="Oval" fill="#FF0013" cx="232.5" cy="95.5" rx="190.5" ry="89.5"></ellipse>
            <path d="M48.093929,112.44294 C48.093929,62.827853 133.191294,22.6112186 238.311569,22.6112186 C326.455899,22.6112186 400.453608,50.8065764 422,89.2746615 C414.817869,42.7195358 332.767468,6 232.21764,6 C127.097365,6 42,46.2166344 42,95.8317215 C42,103.918762 44.1764032,111.568665 48.3115693,119 C48.3115693,116.814313 48.093929,114.628627 48.093929,112.44294 Z" id="Path" fill="#FF7D8D"></path>
            <path d="M232,191 C180.443951,191 131.715871,181.406393 95.1698113,164.181507 C57.1009989,146.302511 36,121.88242 36,95.5 C36,69.1175799 56.8834628,44.6974886 95.1698113,26.8184932 C131.933407,9.59360731 180.443951,0 232,0 C283.556049,0 332.284129,9.59360731 368.830189,26.8184932 C406.899001,44.6974886 428,69.1175799 428,95.5 C428,121.88242 407.116537,146.302511 368.830189,164.181507 C332.066593,181.406393 283.556049,191 232,191 Z M232,11.7739726 C181.966704,11.7739726 135.196448,20.9315068 100.173141,37.5022831 C66.4550499,53.4189498 47.9644839,73.9143836 47.9644839,95.5 C47.9644839,117.085616 66.4550499,137.58105 100.173141,153.497717 C135.413984,170.068493 182.18424,179.226027 232,179.226027 C282.033296,179.226027 328.803552,170.068493 363.826859,153.497717 C397.54495,137.58105 416.035516,117.085616 416.035516,95.5 C416.035516,73.9143836 397.54495,53.4189498 363.826859,37.5022831 C328.586016,20.9315068 281.81576,11.7739726 232,11.7739726 Z" id="Shape" fill="#414042" fill-rule="nonzero"></path>
        </g>
    </g>
</svg>