<?xml version="1.0" encoding="UTF-8"?>
<svg width="465px" height="379px" viewBox="0 0 465 379" version="1.1" xmlns="http://www.w3.org/2000/svg" xmlns:xlink="http://www.w3.org/1999/xlink">
    <!-- Generator: Sketch 52.6 (67491) - http://www.bohemiancoding.com/sketch -->
    <title>Group</title>
    <desc>Created with Sketch.</desc>
    <g id="Page-2" stroke="none" stroke-width="1" fill="none" fill-rule="evenodd">
        <g id="Group">
            <g transform="translate(0.000000, 81.000000)">
                <g transform="translate(0.000000, 73.956204)">
                    <path d="M394.140187,38.0656934 C353.201869,18.2715328 295.714019,5.8729927 232.128972,5.8729927 C168.543925,5.8729927 111.273832,18.2715328 70.117757,38.0656934 L6.53271028,38.0656934 L6.53271028,111.80438 C6.53271028,170.316788 107.571963,217.735766 232.346729,217.735766 C356.903738,217.735766 458.160748,170.316788 458.160748,111.80438 L458.160748,38.0656934 L394.140187,38.0656934 Z" id="Path" fill="#58595B"></path>
                    <path d="M232.346729,223.826277 C171.157009,223.826277 113.669159,212.515328 70.117757,192.286131 C25.2598131,171.186861 0.653271028,142.691971 0.653271028,112.021898 L0.653271028,38.2832117 C0.653271028,35.020438 3.26635514,32.410219 6.53271028,32.410219 L69.028972,32.410219 C112.580374,11.7459854 170.503738,0.217518248 232.346729,0.217518248 C294.18972,0.217518248 352.113084,11.5284672 395.664486,32.410219 L458.160748,32.410219 C461.427103,32.410219 464.040187,35.020438 464.040187,38.2832117 L464.040187,112.021898 C464.040187,142.691971 439.433645,171.186861 394.575701,192.286131 C351.024299,212.515328 293.318692,223.826277 232.346729,223.826277 Z M12.4121495,44.1562044 L12.4121495,112.021898 C12.4121495,137.906569 34.6233645,162.70365 75.1261682,181.627737 C116.935514,201.20438 172.681308,212.080292 232.128972,212.080292 C291.576636,212.080292 347.32243,201.20438 389.131776,181.627737 C429.634579,162.70365 451.845794,137.906569 451.845794,112.021898 L451.845794,44.1562044 L394.140187,44.1562044 C393.269159,44.1562044 392.398131,43.9386861 391.527103,43.5036496 C349.5,23.0569343 292.883178,11.9635036 232.128972,11.9635036 C171.374766,11.9635036 114.975701,23.2744526 72.7308411,43.5036496 C71.8598131,43.9386861 70.988785,44.1562044 70.117757,44.1562044 L12.4121495,44.1562044 Z" id="Shape" fill="#414042" fill-rule="nonzero"></path>
                </g>
                <g>
                    <ellipse id="Oval" fill="#939598" cx="232.346729" cy="112.021898" rx="225.814019" ry="105.931387"></ellipse>
                    <path d="M232.346729,224.043796 C171.157009,224.043796 113.669159,212.732847 70.117757,192.50365 C25.2598131,171.40438 0.653271028,142.909489 0.653271028,112.239416 C0.653271028,81.5693431 25.2598131,53.0744526 70.117757,31.9751825 C113.451402,11.5284672 171.157009,0.435036496 232.346729,0.435036496 C293.536449,0.435036496 351.024299,11.7459854 394.575701,31.9751825 C439.433645,53.0744526 464.040187,81.5693431 464.040187,112.239416 C464.040187,142.909489 439.433645,171.40438 394.575701,192.50365 C351.024299,212.732847 293.318692,224.043796 232.346729,224.043796 Z M232.346729,11.9635036 C172.899065,11.9635036 117.153271,22.8394161 75.3439252,42.4160584 C34.8411215,61.340146 12.6299065,86.1372263 12.6299065,112.021898 C12.6299065,137.906569 34.8411215,162.70365 75.3439252,181.627737 C117.153271,201.20438 172.899065,212.080292 232.346729,212.080292 C291.794393,212.080292 347.540187,201.20438 389.349533,181.627737 C429.852336,162.70365 452.063551,137.906569 452.063551,112.021898 C452.063551,86.1372263 429.852336,61.340146 389.349533,42.4160584 C347.540187,22.8394161 291.794393,11.9635036 232.346729,11.9635036 Z" id="Shape" fill="#414042" fill-rule="nonzero"></path>
                </g>
            </g>
            <g transform="translate(36.000000, 62.000000)">
                <path d="M332.702762,33.2224719 C298.091713,16.4382022 249.766851,5.9752809 196.21768,5.9752809 C142.668508,5.9752809 94.3436464,16.4382022 59.7325967,33.2224719 L5.96574586,33.2224719 L5.96574586,95.5640449 C5.96574586,145.044944 91.078453,185.152809 196.21768,185.152809 C301.356906,185.152809 386.469613,145.044944 386.469613,95.5640449 L386.469613,33.2224719 L332.702762,33.2224719 Z" id="Path" fill="#89000A"></path>
                <path d="M196.435359,191.038202 C144.845304,191.038202 96.0850829,181.447191 59.5149171,164.226966 C21.4209945,146.352809 0.306077348,121.939326 0.306077348,95.5640449 L0.306077348,33.2224719 C0.306077348,29.952809 2.91823204,27.3370787 6.18342541,27.3370787 L58.6441989,27.3370787 C95.4320442,9.8988764 144.409945,0.0898876404 196.435359,0.0898876404 C248.678453,0.0898876404 297.438674,9.68089888 334.226519,27.3370787 L386.469613,27.3370787 C389.734807,27.3370787 392.346961,29.952809 392.346961,33.2224719 L392.346961,95.5640449 C392.346961,121.939326 371.449724,146.352809 333.138122,164.226966 C296.567956,181.447191 248.025414,191.038202 196.435359,191.038202 Z M12.0607735,39.1078652 L12.0607735,95.5640449 C12.0607735,117.14382 30.5635359,137.633708 64.3038674,153.546067 C99.5679558,170.11236 146.369061,179.267416 196.21768,179.267416 C246.283978,179.267416 293.085083,170.11236 328.131492,153.546067 C361.871823,137.633708 380.374586,117.14382 380.374586,95.5640449 L380.374586,39.1078652 L332.485083,39.1078652 C331.614365,39.1078652 330.743646,38.8898876 329.872928,38.4539326 C294.60884,21.2337079 246.937017,11.8606742 196,11.8606742 C145.062983,11.8606742 97.3911602,21.2337079 62.1270718,38.4539326 C61.2563536,38.8898876 60.3856354,39.1078652 59.5149171,39.1078652 L12.0607735,39.1078652 Z" id="Shape" fill="#414042" fill-rule="nonzero"></path>
            </g>
            <ellipse id="Oval" fill="#FF0013" cx="232.5" cy="95.5" rx="190.5" ry="89.5"></ellipse>
            <path d="M48.093929,112.44294 C48.093929,62.827853 133.191294,22.6112186 238.311569,22.6112186 C326.455899,22.6112186 400.453608,50.8065764 422,89.2746615 C414.817869,42.7195358 332.767468,6 232.21764,6 C127.097365,6 42,46.2166344 42,95.8317215 C42,103.918762 44.1764032,111.568665 48.3115693,119 C48.3115693,116.814313 48.093929,114.628627 48.093929,112.44294 Z" id="Path" fill="#FF7D8D"></path>
            <path d="M232,191 C180.443951,191 131.715871,181.406393 95.1698113,164.181507 C57.1009989,146.302511 36,121.88242 36,95.5 C36,69.1175799 56.8834628,44.6974886 95.1698113,26.8184932 C131.933407,9.59360731 180.443951,0 232,0 C283.556049,0 332.284129,9.59360731 368.830189,26.8184932 C406.899001,44.6974886 428,69.1175799 428,95.5 C428,121.88242 407.116537,146.302511 368.830189,164.181507 C332.066593,181.406393 283.556049,191 232,191 Z M232,11.7739726 C181.966704,11.7739726 135.196448,20.9315068 100.173141,37.5022831 C66.4550499,53.4189498 47.9644839,73.9143836 47.9644839,95.5 C47.9644839,117.085616 66.4550499,137.58105 100.173141,153.497717 C135.413984,170.068493 182.18424,179.226027 232,179.226027 C282.033296,179.226027 328.803552,170.068493 363.826859,153.497717 C397.54495,137.58105 416.035516,117.085616 416.035516,95.5 C416.035516,73.9143836 397.54495,53.4189498 363.826859,37.5022831 C328.586016,20.9315068 281.81576,11.7739726 232,11.7739726 Z" id="Shape" fill="#414042" fill-rule="nonzero"></path>
        </g>
    </g>
</svg>